# xmcd CD database file generated by OrangeCD 5.1
#
# Track frame offsets:
#	150
#	13631
#	35733
#	60043
#	82782
#	102455
#	135198
#
# Disc length: 2172 seconds
#
# Revision: 3
# Processed by: cddbd v1.5PL3 Copyright (c) Steve Scherf et al.
# Submitted via: OrangeCD 5.1
#
DISCID=45087a07
DTITLE=Alexis Korner - Testament
DYEAR=1983
DGENRE=British Blues
TTITLE0=One Scotch One Bourbon One Beer
TTITLE1=Stump Blues
TTITLE2=Stream Line Train/My Babe
TTITLE3=32-20 Blues
TTITLE4=Hi-Heel Sneakers
TTITLE5=Will The Circles Be Unbroken
TTITLE6=Mary Open The Door
EXTD=
EXTT0=
EXTT1=
EXTT2=
EXTT3=
EXTT4=
EXTT5=
EXTT6=
PLAYORDER=
